<?xml version="1.0" encoding="utf-8"?>
<svg xmlns="http://www.w3.org/2000/svg" viewBox="0 0 24 24" width="24px" height="24px">
  <path d="M 14.889 14.04 C 13.494 15.068 11.473 15.617 9.732 15.617 C 7.292 15.617 5.095 14.714 3.433 13.213 C 3.302 13.095 3.419 12.934 3.576 13.026 C 5.37 14.069 7.588 14.697 9.879 14.697 C 11.424 14.697 13.124 14.378 14.686 13.714 C 14.923 13.614 15.12 13.869 14.889 14.04" id="path8" style="fill: rgb(255, 153, 0);"/>
  <path d="M 15.469 13.377 C 15.291 13.149 14.29 13.269 13.841 13.322 C 13.704 13.339 13.684 13.22 13.807 13.134 C 14.604 12.573 15.912 12.735 16.064 12.923 C 16.217 13.112 16.025 14.423 15.276 15.049 C 15.161 15.145 15.051 15.094 15.102 14.967 C 15.27 14.547 15.648 13.605 15.469 13.377" id="path10" style="fill: rgb(255, 153, 0);"/>
  <path d="M 13.873 9.174 L 13.873 8.629 C 13.873 8.547 13.935 8.491 14.01 8.491 L 16.452 8.491 C 16.53 8.491 16.594 8.547 16.594 8.629 L 16.594 9.095 C 16.592 9.174 16.526 9.276 16.409 9.438 L 15.144 11.244 C 15.614 11.233 16.11 11.303 16.538 11.543 C 16.633 11.598 16.659 11.677 16.666 11.755 L 16.666 12.337 C 16.666 12.417 16.578 12.51 16.486 12.462 C 15.735 12.068 14.738 12.025 13.907 12.466 C 13.822 12.512 13.734 12.42 13.734 12.34 L 13.734 11.788 C 13.734 11.699 13.735 11.547 13.823 11.413 L 15.289 9.311 L 14.014 9.311 C 13.935 9.311 13.873 9.255 13.873 9.174" id="path12" style=""/>
  <path d="M 4.966 12.576 L 4.224 12.576 C 4.153 12.571 4.096 12.518 4.091 12.45 L 4.091 8.638 C 4.091 8.562 4.155 8.501 4.234 8.501 L 4.927 8.501 C 4.999 8.504 5.056 8.56 5.062 8.629 L 5.062 9.127 L 5.075 9.127 C 5.256 8.645 5.595 8.421 6.053 8.421 C 6.518 8.421 6.808 8.645 7.017 9.127 C 7.197 8.645 7.605 8.421 8.043 8.421 C 8.354 8.421 8.695 8.549 8.903 8.837 C 9.138 9.158 9.09 9.623 9.09 10.033 L 9.089 12.439 C 9.089 12.515 9.025 12.576 8.946 12.576 L 8.204 12.576 C 8.13 12.571 8.07 12.512 8.07 12.439 L 8.07 10.418 C 8.07 10.257 8.085 9.856 8.049 9.704 C 7.994 9.448 7.828 9.375 7.613 9.375 C 7.433 9.375 7.245 9.496 7.169 9.688 C 7.092 9.88 7.1 10.202 7.1 10.418 L 7.1 12.439 C 7.1 12.515 7.036 12.576 6.957 12.576 L 6.215 12.576 C 6.14 12.571 6.081 12.512 6.081 12.439 L 6.08 10.418 C 6.08 9.993 6.15 9.367 5.623 9.367 C 5.089 9.367 5.11 9.977 5.11 10.418 L 5.11 12.439 C 5.11 12.515 5.046 12.576 4.966 12.576" id="path14" style=""/>
  <path d="M 18.695 8.421 C 19.797 8.421 20.394 9.367 20.394 10.571 C 20.394 11.733 19.734 12.656 18.695 12.656 C 17.613 12.656 17.023 11.709 17.023 10.53 C 17.023 9.343 17.62 8.421 18.695 8.421 M 18.701 9.199 C 18.154 9.199 18.119 9.945 18.119 10.411 C 18.119 10.876 18.112 11.87 18.695 11.87 C 19.271 11.87 19.298 11.068 19.298 10.579 C 19.298 10.257 19.284 9.873 19.187 9.568 C 19.103 9.302 18.937 9.199 18.701 9.199" id="path16" style=""/>
  <path d="M 21.823 12.576 L 21.083 12.576 C 21.009 12.571 20.949 12.512 20.949 12.439 L 20.948 8.625 C 20.955 8.555 21.017 8.501 21.092 8.501 L 21.78 8.501 C 21.845 8.504 21.898 8.548 21.913 8.608 L 21.913 9.191 L 21.926 9.191 C 22.134 8.669 22.426 8.421 22.939 8.421 C 23.272 8.421 23.597 8.541 23.806 8.87 C 24 9.175 24 9.688 24 10.057 L 24 12.456 C 23.992 12.523 23.93 12.576 23.857 12.576 L 23.112 12.576 C 23.044 12.571 22.988 12.521 22.981 12.456 L 22.981 10.386 C 22.981 9.969 23.028 9.359 22.516 9.359 C 22.335 9.359 22.17 9.48 22.086 9.664 C 21.982 9.897 21.969 10.129 21.969 10.386 L 21.969 12.439 C 21.967 12.515 21.902 12.576 21.823 12.576" id="path18" style=""/>
  <path d="M 11.926 10.756 L 11.926 10.595 C 11.389 10.595 10.822 10.71 10.822 11.343 C 10.822 11.663 10.988 11.881 11.273 11.881 C 11.482 11.881 11.669 11.752 11.787 11.543 C 11.934 11.286 11.926 11.046 11.926 10.756 M 12.675 12.566 C 12.626 12.61 12.555 12.613 12.5 12.584 C 12.253 12.379 12.209 12.284 12.074 12.089 C 11.666 12.504 11.378 12.629 10.849 12.629 C 10.224 12.629 9.738 12.243 9.738 11.471 C 9.738 10.868 10.065 10.458 10.53 10.257 C 10.933 10.08 11.496 10.048 11.926 9.999 L 11.926 9.903 C 11.926 9.726 11.94 9.518 11.836 9.365 C 11.746 9.228 11.572 9.172 11.42 9.172 C 11.137 9.172 10.884 9.317 10.822 9.618 C 10.81 9.685 10.76 9.751 10.694 9.754 L 9.973 9.676 C 9.912 9.663 9.845 9.614 9.862 9.521 C 10.028 8.647 10.817 8.384 11.523 8.384 C 11.885 8.384 12.357 8.48 12.642 8.754 C 13.003 9.091 12.969 9.542 12.969 10.032 L 12.969 11.189 C 12.969 11.537 13.113 11.689 13.249 11.878 C 13.297 11.944 13.307 12.025 13.247 12.075 C 13.095 12.201 12.826 12.436 12.677 12.568 L 12.675 12.566" id="use28" style=""/>
  <path d="M 2.189 10.756 L 2.189 10.595 C 1.652 10.595 1.084 10.71 1.084 11.343 C 1.084 11.663 1.25 11.881 1.536 11.881 C 1.745 11.881 1.932 11.752 2.05 11.543 C 2.196 11.286 2.189 11.046 2.189 10.756 M 2.938 12.566 C 2.889 12.61 2.818 12.613 2.762 12.584 C 2.516 12.379 2.472 12.284 2.336 12.089 C 1.928 12.504 1.64 12.629 1.112 12.629 C 0.487 12.629 0 12.243 0 11.471 C 0 10.868 0.327 10.458 0.792 10.257 C 1.195 10.08 1.758 10.048 2.189 9.999 L 2.189 9.903 C 2.189 9.726 2.202 9.518 2.099 9.365 C 2.008 9.228 1.834 9.172 1.682 9.172 C 1.399 9.172 1.146 9.317 1.084 9.618 C 1.072 9.685 1.022 9.751 0.956 9.754 L 0.235 9.676 C 0.174 9.663 0.108 9.614 0.124 9.521 C 0.29 8.647 1.079 8.384 1.785 8.384 C 2.147 8.384 2.619 8.48 2.904 8.754 C 3.266 9.091 3.231 9.542 3.231 10.032 L 3.231 11.189 C 3.231 11.537 3.375 11.689 3.511 11.878 C 3.559 11.944 3.57 12.025 3.509 12.075 C 3.358 12.201 3.088 12.436 2.94 12.568 L 2.938 12.566" id="path30" style=""/>
</svg>