<?xml version="1.0" encoding="utf-8"?>
<svg xmlns="http://www.w3.org/2000/svg" viewBox="0 0 24 24" width="24px" height="24px">
  <linearGradient id="a" x1="-277.375" x2="-277.375" y1="406.6018" y2="407.5726" gradientTransform="matrix(24.000001, 0, 0, -23.866682, 6669.000851, 9727.400777)" gradientUnits="userSpaceOnUse">
    <stop offset="0" stop-color="#0062e0"/>
    <stop offset="1" stop-color="#19afff"/>
  </linearGradient>
  <path fill="url(#a)" d="M 10.02 23.88 C 4.32 22.86 0 17.94 0 12 C 0 5.4 5.4 0 12 0 C 18.6 0 24 5.4 24 12 C 24 17.94 19.68 22.86 13.98 23.88 L 13.32 23.34 L 10.68 23.34 L 10.02 23.88 L 10.02 23.88 Z" style=""/>
  <path fill="#fff" d="M 16.68 15.36 L 17.22 12 L 14.04 12 L 14.04 9.66 C 14.04 8.7 14.4 7.98 15.84 7.98 L 17.4 7.98 L 17.4 4.92 C 16.56 4.8 15.6 4.68 14.76 4.68 C 12 4.68 10.08 6.36 10.08 9.36 L 10.08 12 L 7.08 12 L 7.08 15.36 L 10.08 15.36 L 10.08 23.82 C 10.74 23.94 11.4 24 12.06 24 C 12.72 24 13.38 23.94 14.04 23.82 L 14.04 15.36 L 16.68 15.36 L 16.68 15.36 Z" style=""/>
</svg>