<?xml version="1.0" encoding="utf-8"?>
<svg xmlns="http://www.w3.org/2000/svg" height="24" viewBox="0 0 24 24" width="24">
  <path d="M 23.52 12.273 C 23.52 11.422 23.444 10.604 23.302 9.818 L 12 9.818 L 12 14.465 L 18.458 14.465 C 18.175 15.96 17.324 17.225 16.047 18.076 L 16.047 21.098 L 19.942 21.098 C 22.211 19.004 23.52 15.927 23.52 12.273 Z" fill="#4285F4" style=""/>
  <path d="M 12 24 C 15.24 24 17.956 22.931 19.942 21.098 L 16.047 18.076 C 14.978 18.796 13.615 19.233 12 19.233 C 8.88 19.233 6.229 17.127 5.28 14.291 L 1.287 14.291 L 1.287 17.389 C 3.262 21.305 7.309 24 12 24 Z" fill="#34A853" style=""/>
  <path d="M 5.28 14.28 C 5.04 13.56 4.898 12.796 4.898 12 C 4.898 11.204 5.04 10.44 5.28 9.72 L 5.28 6.622 L 1.287 6.622 C 0.469 8.236 0 10.058 0 12 C 0 13.942 0.469 15.764 1.287 17.378 L 4.396 14.956 L 5.28 14.28 Z" fill="#FBBC05" style=""/>
  <path d="M 12 4.778 C 13.767 4.778 15.338 5.389 16.593 6.567 L 20.029 3.131 C 17.945 1.189 15.24 0 12 0 C 7.309 0 3.262 2.695 1.287 6.622 L 5.28 9.72 C 6.229 6.884 8.88 4.778 12 4.778 Z" fill="#EA4335" style=""/>
  <path d="M 0 0 L 24 0 L 24 24 L 0 24 L 0 0 Z" fill="none" style=""/>
</svg>