<?xml version="1.0" encoding="utf-8"?>
<svg xmlns="http://www.w3.org/2000/svg" viewBox="0 0 24 24" preserveAspectRatio="xMinYMid" width="24px" height="24px">
  <path d="M 10.385 12.468 L 11.967 12.468 L 11.132 11.118 L 9.595 13.557 L 8.896 13.557 L 10.765 10.632 C 10.941 10.379 11.313 10.377 11.492 10.626 L 13.367 13.557 L 12.668 13.557 L 12.338 13.012 L 10.737 13.012 L 10.388 12.468 M 17.651 13.012 L 17.651 10.471 L 17.057 10.471 L 17.057 13.262 C 17.057 13.34 17.088 13.416 17.145 13.47 C 17.202 13.528 17.28 13.561 17.361 13.56 L 20.061 13.56 L 20.413 13.015 L 17.648 13.015 M 7.829 12.558 C 8.633 12.558 9.135 11.688 8.733 10.992 C 8.547 10.669 8.202 10.471 7.829 10.471 L 5.233 10.471 L 5.233 13.557 L 5.826 13.557 L 5.826 11.017 L 7.793 11.017 C 8.177 11.017 8.417 11.433 8.225 11.766 C 8.136 11.921 7.971 12.016 7.793 12.016 L 6.119 12.016 L 7.891 13.557 L 8.752 13.557 L 7.563 12.558 L 7.829 12.558 M 1.585 13.557 L 3.379 13.557 C 4.566 13.526 5.276 12.221 4.655 11.208 C 4.382 10.762 3.901 10.485 3.379 10.471 L 1.585 10.471 C 0.398 10.441 -0.378 11.707 0.189 12.751 C 0.466 13.26 1.005 13.572 1.585 13.557 M 3.339 13.014 L 1.625 13.014 C 0.856 12.989 0.402 12.142 0.808 11.488 C 0.985 11.204 1.291 11.027 1.625 11.017 L 3.339 11.017 C 4.107 10.992 4.615 11.808 4.251 12.486 C 4.072 12.822 3.718 13.026 3.339 13.014 M 14.605 13.557 L 16.437 13.557 L 16.783 13.014 L 14.646 13.014 C 13.877 13.039 13.37 12.222 13.733 11.544 C 13.913 11.209 14.266 11.004 14.646 11.017 L 16.386 11.017 L 16.737 10.471 L 14.605 10.471 C 13.418 10.441 12.642 11.707 13.21 12.751 C 13.487 13.26 14.026 13.572 14.605 13.557 M 21.862 13.014 C 21.415 13.014 21.022 12.717 20.9 12.287 L 23.437 12.287 L 23.785 11.743 L 20.9 11.743 C 21.022 11.312 21.415 11.015 21.862 11.015 L 23.602 11.015 L 23.95 10.471 L 21.821 10.471 C 20.634 10.501 19.925 11.806 20.545 12.819 C 20.819 13.265 21.299 13.542 21.821 13.556 L 23.653 13.556 L 24 13.012 L 21.861 13.012" style="fill: rgb(199, 70, 52);"/>
</svg>