<?xml version="1.0" encoding="utf-8"?>
<svg width="24px" height="24px" viewBox="0 0 24 24" xmlns="http://www.w3.org/2000/svg">
  <path d="M 7.101 21.023 C 10.427 23.215 14.765 23.103 17.972 20.741 L 22.736 17.218 C 24.448 15.949 24.401 13.371 22.645 12.164 L 12.113 4.943 L 8.033 7.626 L 18.353 14.649 L 12 19.061 L 1.765 12.002 L 1.518 12.164 C 0.591 12.735 0.019 13.738 0 14.826 C 0.035 15.838 0.576 16.767 1.44 17.296 L 7.101 21.023 Z" fill="#76BD43" style=""/>
  <path d="M 16.899 1.569 C 13.573 -0.623 9.235 -0.51 6.028 1.851 L 1.264 5.374 C -0.448 6.644 -0.401 9.221 1.355 10.428 L 11.887 17.649 L 15.967 14.967 L 5.647 7.943 L 12 3.531 L 22.235 10.59 L 22.482 10.428 C 23.409 9.858 23.981 8.854 24 7.767 C 23.965 6.754 23.424 5.826 22.56 5.296 L 16.899 1.569 Z" fill="#4F5354" style=""/>
</svg>