<?xml version="1.0" encoding="utf-8"?>
<svg xmlns="http://www.w3.org/2000/svg" viewBox="0 0 24 24" width="24px" height="24px">
  <path fill="#1d9bf0" d="M 21.543 7.104 C 21.557 7.316 21.557 7.527 21.557 7.741 C 21.557 14.247 16.605 21.751 7.547 21.751 L 7.547 21.747 C 4.872 21.751 2.252 20.985 0 19.539 C 0.389 19.586 0.779 19.609 1.172 19.61 C 3.389 19.612 5.543 18.868 7.288 17.498 C 5.18 17.459 3.333 16.085 2.687 14.08 C 3.425 14.222 4.185 14.193 4.911 13.994 C 2.613 13.531 0.96 11.512 0.96 9.168 L 0.96 9.106 C 1.645 9.488 2.411 9.698 3.195 9.722 C 1.032 8.276 0.364 5.398 1.672 3.147 C 4.171 6.224 7.859 8.093 11.819 8.292 C 11.422 6.581 11.965 4.79 13.244 3.588 C 15.226 1.723 18.345 1.819 20.21 3.801 C 21.313 3.584 22.37 3.179 23.337 2.606 C 22.969 3.745 22.2 4.714 21.172 5.328 C 22.149 5.213 23.102 4.953 24 4.554 C 23.338 5.544 22.507 6.407 21.543 7.104 Z" style=""/>
</svg>